<svg xmlns="http://www.w3.org/2000/svg" width="19.041" height="18.998" viewBox="0 0 19.041 18.998"><g transform="translate(0 0)"><path d="M18.614,15.42l-2.941-2.941a1.533,1.533,0,0,0-2.162.041L12.03,14l-.292-.163a14.743,14.743,0,0,1-3.563-2.577,14.825,14.825,0,0,1-2.582-3.57c-.055-.1-.107-.195-.159-.286l.994-.993.489-.489a1.532,1.532,0,0,0,.039-2.162L4.014.82A1.532,1.532,0,0,0,1.853.861l-.829.834.023.022a4.792,4.792,0,0,0-.683,1.2,4.994,4.994,0,0,0-.3,1.222C-.329,7.362,1.142,10.3,5.134,14.3c5.518,5.518,9.965,5.1,10.157,5.081a4.969,4.969,0,0,0,1.225-.308,4.776,4.776,0,0,0,1.2-.68l.018.016.84-.822A1.535,1.535,0,0,0,18.614,15.42Z" transform="translate(0 -0.394)"/></g></svg>