<svg xmlns="http://www.w3.org/2000/svg" width="20.833" height="20.833" viewBox="0 0 20.833 20.833"><defs><style>.a{fill:#fff;}</style></defs><path class="a" d="M10.417,0A10.417,10.417,0,1,0,20.833,10.417,10.417,10.417,0,0,0,10.417,0Zm.447,19.917V18.085a.447.447,0,1,0-.894,0v1.832A9.518,9.518,0,0,1,.916,10.864H2.748a.447.447,0,0,0,0-.894H.916A9.518,9.518,0,0,1,9.97.916V2.748a.447.447,0,0,0,.894,0V.916A9.518,9.518,0,0,1,19.917,9.97H18.085a.447.447,0,1,0,0,.894h1.837A9.518,9.518,0,0,1,10.864,19.917Z"/><g transform="translate(9.97 5.278)"><path class="a" d="M183.641,103.775l-4.268-4.339V94.927a.447.447,0,0,0-.894,0v4.692a.447.447,0,0,0,.13.313L183,104.4a.447.447,0,0,0,.639-.626Z" transform="translate(-178.48 -94.48)"/></g></svg>