<svg xmlns="http://www.w3.org/2000/svg" xmlns:xlink="http://www.w3.org/1999/xlink" width="31.458" height="31.458" viewBox="0 0 31.458 31.458"><defs><style>.a{fill:url(#a);}.b{fill:url(#b);}.c{fill:url(#c);}</style><linearGradient id="a" x1="0.5" y1="0.008" x2="0.5" y2="0.998" gradientUnits="objectBoundingBox"><stop offset="0" stop-color="#e09b3d"/><stop offset="0.3" stop-color="#c74c4d"/><stop offset="0.6" stop-color="#c21975"/><stop offset="1" stop-color="#7024c4"/></linearGradient><linearGradient id="b" y1="-0.451" y2="1.462" xlink:href="#a"/><linearGradient id="c" y1="-1.396" y2="6.586" xlink:href="#a"/></defs><path class="a" d="M22.087,0H9.372A9.382,9.382,0,0,0,0,9.372V22.087a9.382,9.382,0,0,0,9.372,9.372H22.087a9.382,9.382,0,0,0,9.372-9.372V9.372A9.382,9.382,0,0,0,22.087,0Zm6.207,22.087a6.207,6.207,0,0,1-6.207,6.207H9.372a6.207,6.207,0,0,1-6.207-6.207V9.372A6.207,6.207,0,0,1,9.372,3.165H22.087a6.207,6.207,0,0,1,6.207,6.207V22.087Z"/><path class="b" d="M141.136,133a8.136,8.136,0,1,0,8.136,8.136A8.145,8.145,0,0,0,141.136,133Zm0,13.108a4.971,4.971,0,1,1,4.971-4.971A4.971,4.971,0,0,1,141.136,146.108Z" transform="translate(-125.407 -125.407)"/><circle class="c" cx="1.95" cy="1.95" r="1.95" transform="translate(21.931 5.704)"/></svg>