<svg xmlns="http://www.w3.org/2000/svg" width="16.051" height="23.648" viewBox="0 0 16.051 23.648"><defs><style>.a{fill:#fff;}</style></defs><g transform="translate(-78.957)"><g transform="translate(78.957)"><path class="a" d="M86.983,0a8.035,8.035,0,0,0-8.026,8.026c0,1.778,1.047,4.483,3.295,8.511,1.534,2.749,3.061,5.07,3.125,5.168l1.1,1.673a.6.6,0,0,0,1,0l1.1-1.673c.064-.1,1.58-2.4,3.125-5.168,2.248-4.028,3.295-6.733,3.295-8.511A8.035,8.035,0,0,0,86.983,0Zm3.681,15.951c-1.524,2.731-3.016,5-3.079,5.092l-.6.912-.6-.912c-.063-.1-1.566-2.382-3.079-5.092-2.085-3.737-3.142-6.4-3.142-7.925a6.823,6.823,0,0,1,13.646,0C93.806,9.548,92.748,12.214,90.663,15.951Z" transform="translate(-78.957)"/><path class="a" d="M157.741,73.291a4.45,4.45,0,1,0,4.45,4.45A4.455,4.455,0,0,0,157.741,73.291Zm0,7.7a3.247,3.247,0,1,1,3.247-3.247A3.251,3.251,0,0,1,157.741,80.988Z" transform="translate(-149.715 -69.765)"/></g></g></svg>