<svg xmlns="http://www.w3.org/2000/svg" width="22.904" height="17.178" viewBox="0 0 22.904 17.178"><g transform="translate(0 -60.651)"><path d="M22.9,74.966a2.838,2.838,0,0,1-.367,1.377L15.3,68.252l7.153-6.258a2.842,2.842,0,0,1,.446,1.521V74.966ZM11.452,69.721l9.954-8.709a2.827,2.827,0,0,0-1.365-.361H2.863a2.817,2.817,0,0,0-1.364.361Zm2.775-.527-2.3,2.017a.718.718,0,0,1-.942,0l-2.3-2.017L1.353,77.388a2.828,2.828,0,0,0,1.51.44H20.041a2.828,2.828,0,0,0,1.51-.44ZM.446,61.993A2.842,2.842,0,0,0,0,63.514V74.966a2.828,2.828,0,0,0,.368,1.377L7.6,68.25Z"/></g></svg>